<?xml version="1.0" standalone="no"?>
<!DOCTYPE svg PUBLIC "-//W3C//DTD SVG 20010904//EN"
 "http://www.w3.org/TR/2001/REC-SVG-20010904/DTD/svg10.dtd">
<svg version="1.0" xmlns="http://www.w3.org/2000/svg"
 width="16.000000pt" height="16.000000pt" viewBox="0 0 512.000000 512.000000"
 preserveAspectRatio="xMidYMid meet">

<g transform="translate(0.000000,512.000000) scale(0.100000,-0.100000)"
fill="#fff" stroke="none">
<path d="M4620 4343 c-13 -3 -279 -103 -590 -223 -311 -120 -1256 -484 -2100
-810 -844 -325 -1561 -606 -1594 -623 -70 -37 -142 -105 -162 -152 -42 -101 9
-206 128 -263 24 -12 277 -94 563 -183 286 -89 523 -165 527 -168 4 -4 89
-274 189 -601 99 -327 187 -615 195 -640 35 -114 78 -144 204 -145 130 0 163
19 367 215 92 89 174 175 182 190 28 56 -31 123 -91 105 -13 -4 -96 -79 -184
-166 -89 -86 -176 -165 -193 -174 -20 -10 -50 -15 -79 -13 l-47 3 -187 615
c-103 338 -188 622 -188 631 0 10 194 138 538 354 295 186 549 351 565 367 15
15 27 40 27 54 0 34 -42 74 -77 74 -21 0 -193 -104 -591 -355 -309 -195 -567
-355 -574 -355 -23 0 -1042 321 -1079 341 -21 10 -40 23 -44 29 -10 17 13 47
62 78 55 35 -14 8 1963 770 828 320 1680 648 1895 731 426 165 458 173 508
127 26 -25 47 -81 47 -130 0 -30 -699 -3339 -727 -3439 -10 -37 -28 -72 -48
-93 -27 -29 -39 -34 -77 -34 -25 0 -59 5 -77 11 -18 6 -277 192 -576 413 -299
220 -669 493 -823 606 -155 113 -281 208 -281 212 -1 4 447 411 994 903 994
896 995 896 995 935 0 30 -6 43 -26 59 -34 27 -64 27 -100 -1 -105 -83 -2061
-1854 -2068 -1874 -21 -52 -4 -68 341 -324 182 -135 571 -423 865 -640 293
-217 558 -407 588 -422 196 -99 379 -23 443 183 9 30 179 819 378 1754 331
1558 360 1706 357 1775 -7 127 -69 229 -164 271 -43 20 -133 31 -174 22z"/>
<path d="M2843 2948 c-55 -27 -50 -114 8 -138 89 -37 151 99 63 139 -30 13
-42 13 -71 -1z"/>
</g>
</svg>
